<?xml version="1.0" encoding="utf-8"?>
<!-- Generator: Adobe Illustrator 24.3.2, SVG Export Plug-In . SVG Version: 6.00 Build 0)  -->
<svg version="1.1" id="Layer_1" xmlns="http://www.w3.org/2000/svg" xmlns:xlink="http://www.w3.org/1999/xlink" x="0px" y="0px"
	 viewBox="0 0 100 100" style="enable-background:new 0 0 100 100;" xml:space="preserve">
<path d="M69.09,38.04h-0.58c-0.54-4.22-1.86-8.24-3.91-11.98c-1.95-3.54-4.49-6.66-7.55-9.29c-0.16-0.14-0.32-0.28-0.48-0.41
	c-0.15-0.12-0.34-0.19-0.53-0.19h-3.55V0.91c0-0.46-0.37-0.83-0.83-0.83h-3.13c-0.46,0-0.83,0.37-0.83,0.83v15.25h-3.42
	c-0.16,0-0.32,0.05-0.46,0.14c-0.28,0.18-0.57,0.38-0.87,0.6c-2.43,1.74-5.51,4.58-7.87,8.83c-2.57,4.63-3.27,9.12-3.36,12.3h-0.81
	c-0.46,0-0.83,0.37-0.83,0.83v3.52c0,0.46,0.37,0.83,0.83,0.83h1.05l5.54,55.95c0.04,0.42,0.4,0.75,0.83,0.75h23.43
	c0.42,0,0.78-0.32,0.83-0.74l5.75-55.95h0.77c0.46,0,0.83-0.37,0.83-0.83v-3.52C69.93,38.41,69.55,38.04,69.09,38.04z M49.36,1.74
	h1.47v14.11h-1.47V1.74z M55.35,17.83c-0.35,2.64-2.62,4.67-5.35,4.67s-4.99-2.04-5.35-4.67H55.35z M39.07,98.26l-5.44-55.03h1.15
	l5.6,55.03H39.07z M46.45,98.26l-4.12-55.03h4l1.47,55.03H46.45z M53.87,98.26h-1.35l1.47-55.03h4L53.87,98.26z M61,98.26h-1.05
	l5.59-55.03h1.12L61,98.26z M33.38,38.04c0.09-2.98,0.75-7.17,3.15-11.5c1.98-3.56,4.49-6.06,6.63-7.72
	c0.76,3.06,3.54,5.34,6.84,5.34c3.3,0,6.09-2.28,6.85-5.35c2.52,2.34,4.64,5.04,6.3,8.06c1.92,3.48,3.16,7.24,3.69,11.17H33.38z"/>
</svg>
